<?xml version="1.0" encoding="UTF-8" standalone="no"?>
<!-- Created with Inkscape (http://www.inkscape.org/) -->

<svg
   xmlns:dc="http://purl.org/dc/elements/1.1/"
   xmlns:cc="http://creativecommons.org/ns#"
   xmlns:rdf="http://www.w3.org/1999/02/22-rdf-syntax-ns#"
   xmlns:svg="http://www.w3.org/2000/svg"
   xmlns="http://www.w3.org/2000/svg"
   xmlns:sodipodi="http://sodipodi.sourceforge.net/DTD/sodipodi-0.dtd"
   xmlns:inkscape="http://www.inkscape.org/namespaces/inkscape"
   width="128.17123"
   height="69.511314"
   id="svg5156"
   version="1.1"
   inkscape:version="0.48.4 r9939"
   sodipodi:docname="A6-kkbb-medor-bonhomme.svg"
   inkscape:export-filename="/home/sarah/osp.work.medor/flyers/A6-kkbb-paysage-texte2.png"
   inkscape:export-xdpi="90"
   inkscape:export-ydpi="90">
  <defs
     id="defs5158">
    <inkscape:path-effect
       is_visible="true"
       id="path-effect10413-7"
       effect="spiro" />
    <inkscape:path-effect
       is_visible="true"
       id="path-effect10415-2"
       effect="spiro" />
    <inkscape:path-effect
       effect="spiro"
       id="path-effect10417-4"
       is_visible="true" />
    <inkscape:path-effect
       effect="spiro"
       id="path-effect10399-5"
       is_visible="true" />
    <inkscape:path-effect
       effect="spiro"
       id="path-effect10401-6"
       is_visible="true" />
    <inkscape:path-effect
       is_visible="true"
       id="path-effect10403-12"
       effect="spiro" />
    <inkscape:path-effect
       is_visible="true"
       id="path-effect10268-74"
       effect="spiro" />
    <inkscape:path-effect
       is_visible="true"
       id="path-effect10270-6"
       effect="spiro" />
    <inkscape:path-effect
       effect="spiro"
       id="path-effect10288-8"
       is_visible="true" />
    <inkscape:path-effect
       effect="spiro"
       id="path-effect6361-6"
       is_visible="true" />
    <inkscape:path-effect
       is_visible="true"
       id="path-effect6363-4"
       effect="spiro" />
    <inkscape:path-effect
       is_visible="true"
       id="path-effect6365-6"
       effect="spiro" />
    <inkscape:path-effect
       effect="spiro"
       id="path-effect6367-7"
       is_visible="true" />
    <inkscape:path-effect
       effect="spiro"
       id="path-effect6369-3"
       is_visible="true" />
    <inkscape:path-effect
       effect="spiro"
       id="path-effect6371-4"
       is_visible="true" />
    <inkscape:path-effect
       effect="spiro"
       id="path-effect6373-4"
       is_visible="true" />
    <inkscape:path-effect
       is_visible="true"
       id="path-effect6376-3"
       effect="spiro" />
    <inkscape:path-effect
       effect="spiro"
       id="path-effect6378-2"
       is_visible="true" />
    <inkscape:path-effect
       effect="spiro"
       id="path-effect6380-7"
       is_visible="true" />
    <inkscape:path-effect
       is_visible="true"
       id="path-effect6382-7"
       effect="spiro" />
    <inkscape:path-effect
       is_visible="true"
       id="path-effect6384-7"
       effect="spiro" />
    <inkscape:path-effect
       effect="spiro"
       id="path-effect6386-0"
       is_visible="true" />
    <inkscape:path-effect
       is_visible="true"
       id="path-effect6388-9"
       effect="spiro" />
    <inkscape:path-effect
       is_visible="true"
       id="path-effect6390-9"
       effect="spiro" />
    <inkscape:path-effect
       effect="spiro"
       id="path-effect6392-4"
       is_visible="true" />
    <inkscape:path-effect
       is_visible="true"
       id="path-effect5199"
       effect="spiro" />
    <inkscape:path-effect
       is_visible="true"
       id="path-effect5201"
       effect="spiro" />
    <inkscape:path-effect
       effect="spiro"
       id="path-effect5203"
       is_visible="true" />
    <inkscape:path-effect
       effect="spiro"
       id="path-effect5205"
       is_visible="true" />
    <inkscape:path-effect
       effect="spiro"
       id="path-effect5207"
       is_visible="true" />
    <inkscape:path-effect
       is_visible="true"
       id="path-effect5209"
       effect="spiro" />
    <inkscape:path-effect
       is_visible="true"
       id="path-effect5211"
       effect="spiro" />
    <inkscape:path-effect
       is_visible="true"
       id="path-effect5213"
       effect="spiro" />
    <inkscape:path-effect
       effect="spiro"
       id="path-effect5215"
       is_visible="true" />
    <inkscape:path-effect
       is_visible="true"
       id="path-effect6708-1"
       effect="spiro" />
    <inkscape:path-effect
       effect="spiro"
       id="path-effect6710-8"
       is_visible="true" />
    <inkscape:path-effect
       effect="spiro"
       id="path-effect6712-9"
       is_visible="true" />
    <inkscape:path-effect
       is_visible="true"
       id="path-effect6714-9"
       effect="spiro" />
    <inkscape:path-effect
       is_visible="true"
       id="path-effect6716-0"
       effect="spiro" />
    <inkscape:path-effect
       is_visible="true"
       id="path-effect6718-0"
       effect="spiro" />
    <inkscape:path-effect
       effect="spiro"
       id="path-effect6730-0"
       is_visible="true" />
    <filter
       color-interpolation-filters="sRGB"
       inkscape:collect="always"
       id="filter11148-7">
      <feGaussianBlur
         inkscape:collect="always"
         stdDeviation="17.873938"
         id="feGaussianBlur11150-0" />
    </filter>
    <clipPath
       clipPathUnits="userSpaceOnUse"
       id="clipPath7507-8">
      <rect
         style="color:#000000;fill:#2a85a4;fill-opacity:1;fill-rule:evenodd;stroke:none;stroke-width:2;marker:none;visibility:visible;display:inline;overflow:visible;enable-background:accumulate"
         id="rect7509-7"
         width="658.20575"
         height="821.74768"
         x="-10876.925"
         y="144.7406"
         inkscape:export-filename="/home/ludi/wrk/osp.work.medor/longform/static/img/medor-objet-coop.png"
         inkscape:export-xdpi="148.07108"
         inkscape:export-ydpi="148.07108" />
    </clipPath>
  </defs>
  <sodipodi:namedview
     id="base"
     pagecolor="#ffffff"
     bordercolor="#666666"
     borderopacity="1.0"
     inkscape:pageopacity="0.0"
     inkscape:pageshadow="2"
     inkscape:zoom="1.4"
     inkscape:cx="186.5085"
     inkscape:cy="118.95705"
     inkscape:document-units="px"
     inkscape:current-layer="layer1"
     showgrid="false"
     inkscape:window-width="1375"
     inkscape:window-height="876"
     inkscape:window-x="65"
     inkscape:window-y="24"
     inkscape:window-maximized="1"
     fit-margin-top="0"
     fit-margin-left="0"
     fit-margin-right="0"
     fit-margin-bottom="0"
     showguides="true"
     inkscape:guide-bbox="true">
    <sodipodi:guide
       orientation="0,1"
       position="286.94276,-164.44959"
       id="guide3280" />
  </sodipodi:namedview>
  <metadata
     id="metadata5161">
    <rdf:RDF>
      <cc:Work
         rdf:about="">
        <dc:format>image/svg+xml</dc:format>
        <dc:type
           rdf:resource="http://purl.org/dc/dcmitype/StillImage" />
        <dc:title />
      </cc:Work>
    </rdf:RDF>
  </metadata>
  <g
     inkscape:label="Calque 1"
     inkscape:groupmode="layer"
     id="layer1"
     transform="translate(357.76744,-1167.4224)">
    <path
       style="fill:#000000"
       d="m -340.57914,1236.68 c -3.31947,-1.1863 -6.59234,-6.2346 -8.03033,-12.3866 -0.57768,-2.4715 -1.03232,-2.3842 -2.47221,0.4745 -0.88218,1.7515 -1.58542,2.3835 -2.21,1.9863 -0.2785,-0.1771 -0.34068,-0.4986 -0.34068,-1.7613 0,-1.4023 0.0573,-1.6369 0.62235,-2.5451 l 0.62236,-1.0004 -0.5255,0.2728 c -0.60477,0.314 -1.76634,1.4884 -2.98987,3.0229 -1.32477,1.6615 -2.21719,1.488 -1.7293,-0.3362 0.52817,-1.9747 3.13041,-4.8085 5.65264,-6.1555 1.29729,-0.6929 1.3903,-0.7792 0.89997,-0.8354 -0.3661,-0.042 -0.94234,0.1738 -1.74346,0.6527 -1.32879,0.7943 -2.37065,1.0257 -3.02967,0.673 -0.3564,-0.1907 -0.41434,-0.3416 -0.31735,-0.8266 0.16656,-0.8328 0.39922,-1.0482 1.28504,-1.1899 0.42567,-0.068 0.94243,-0.2922 1.14836,-0.4981 0.52783,-0.5279 1.29166,-0.8846 2.52591,-1.1796 0.586,-0.1401 1.13616,-0.3139 1.22257,-0.3862 0.0864,-0.072 -0.0179,-0.8627 -0.23176,-1.7565 -0.21387,-0.8938 -0.70044,-3.2814 -1.08125,-5.3058 -0.38083,-2.0244 -0.81761,-4.2473 -0.97064,-4.9398 -0.15304,-0.6926 -0.46261,-2.3053 -0.68794,-3.5838 -0.22533,-1.2786 -1.00807,-4.7219 -1.73942,-7.6519 -0.73136,-2.93 -1.38878,-5.6552 -1.46095,-6.0559 -0.0722,-0.4007 -0.20851,-0.7763 -0.30297,-0.8347 -0.26198,-0.1619 -0.20495,-1.007 0.10892,-1.6139 1.02292,-1.9781 3.5636,-3.0368 16.81117,-7.005 1.88907,-0.5659 3.41129,-1.0523 3.38271,-1.0808 -0.0286,-0.029 -1.26907,0.2022 -2.75666,0.5129 -5.47581,1.1435 -13.168,2.3286 -15.1027,2.3267 -0.63927,-5e-4 -1.67998,0.084 -2.3127,0.1873 -0.6327,0.1036 -1.19681,0.1419 -1.25356,0.085 -0.22278,-0.2228 0.49071,-0.4353 1.89838,-0.5654 0.81079,-0.075 2.25873,-0.258 3.21763,-0.4069 0.95891,-0.1488 2.74597,-0.4005 3.97124,-0.5592 1.97556,-0.2559 5.22252,-0.827 7.1676,-1.2607 0.67156,-0.1497 0.67248,-0.1514 0.0969,-0.1697 -0.31964,-0.01 -1.54007,0.1125 -2.71206,0.2727 -1.17201,0.1601 -3.74362,0.3717 -5.71471,0.4703 -1.97109,0.099 -4.29073,0.2389 -5.15474,0.3118 -1.01517,0.086 -1.61476,0.062 -1.69481,-0.068 -0.25941,-0.4197 1.27745,-0.6609 5.39665,-0.8468 2.58718,-0.1168 5.86034,-0.4134 8.32992,-0.755 4.66721,-0.6455 7.5517,-0.9677 8.46756,-0.9457 l 0.63722,0.015 -0.58116,0.2207 -0.58115,0.2207 0.67582,0.103 c 1.48783,0.2268 0.68701,1.3931 -2.09144,3.0459 -3.74087,2.2254 -4.49281,3.4952 -4.49281,7.5869 0,3.1401 -0.28594,4.1984 -1.44852,5.361 -0.53993,0.5399 -1.14306,0.9241 -1.68221,1.0715 -1.03653,0.2834 -3.0366,0.3405 -3.53486,0.1009 -0.33735,-0.1622 -0.35801,-0.1198 -0.23599,0.4843 0.15416,0.7632 0.56653,3.0461 1.09212,6.0459 0.20146,1.1498 0.53808,2.719 0.74804,3.487 0.20996,0.7679 0.56864,2.3988 0.79707,3.6241 0.22843,1.2252 0.53959,2.6636 0.69147,3.1963 0.35961,1.2614 1.18691,5.8399 1.35329,7.4895 0.13364,1.325 0.70997,2.6048 1.07222,2.381 0.11147,-0.069 0.29068,-0.3566 0.39825,-0.6392 0.17558,-0.4614 0.1228,-0.575 -0.51651,-1.1121 -0.43094,-0.362 -0.68495,-0.7304 -0.64338,-0.9331 0.0571,-0.2781 0.20839,-0.2151 0.89199,0.3711 0.88802,0.7616 0.98831,1.1509 0.5265,2.044 -0.28797,0.5568 -0.28183,0.5796 0.20633,0.7652 0.6718,0.2554 2.60882,0.2472 2.60882,-0.011 0,-0.1113 -0.35238,-1.604 -0.78307,-3.3171 -0.43068,-1.713 -0.75442,-3.2005 -0.71941,-3.3055 0.035,-0.1051 0.43749,1.0171 0.89439,2.4937 0.45691,1.4766 0.9332,3.011 1.05843,3.4097 l 0.22768,0.7249 0.60715,-0.3694 c 1.40572,-0.8554 2.07872,-2.3327 2.88841,-6.3404 0.70944,-3.5114 1.41199,-4.6071 3.09542,-4.8276 l 0.77033,-0.1008 -0.47972,0.348 c -2.09573,1.5207 -2.4842,2.2052 -2.80613,4.9449 -0.35301,3.0042 -0.99824,4.5555 -2.49146,5.9899 -1.17565,1.1293 -3.58561,1.4764 -5.41839,0.7803 -1.57245,-0.5972 -1.66609,-0.7685 -2.1369,-3.9088 -0.0399,-0.2664 -0.11953,-0.4843 -0.17688,-0.4843 -0.44905,0 -2.02775,1.5408 -3.15034,3.0747 -1.30892,1.7885 -1.71466,2.1367 -1.8913,1.623 -0.0471,-0.1369 -0.26434,0.053 -0.49972,0.4358 -0.61981,1.0091 -0.51928,2.4448 0.10843,1.5486 0.14879,-0.2124 0.39633,-0.3862 0.55011,-0.3862 0.33829,0 0.36062,0.2289 0.0523,0.5371 -0.1723,0.1723 -0.1733,0.3455 -0.004,0.7168 0.17294,0.3795 0.36545,0.4889 0.8568,0.4866 0.94149,0 1.21291,-0.2327 0.92232,-0.7757 -0.31077,-0.5807 -0.13746,-2.0394 0.29969,-2.5225 0.48471,-0.5355 1.92935,-0.5305 2.26561,0.01 0.32933,0.5274 0.49511,0.4868 0.59286,-0.1452 0.0789,-0.5104 0.0885,-0.5146 0.22811,-0.101 0.13395,0.3969 0.17872,0.4087 0.55473,0.1453 0.79775,-0.5588 1.01708,-0.2847 0.28804,0.3599 -0.39204,0.3466 -0.77161,0.8646 -0.84349,1.151 -0.0719,0.2864 -0.39475,0.7789 -0.71747,1.0944 l -0.58678,0.5737 0.9839,-0.2596 c 1.38752,-0.366 2.58076,-1.0719 3.03655,-1.7964 0.2144,-0.3408 0.49117,-0.623 0.61502,-0.6271 0.26183,-0.01 1.25447,2.4981 1.83092,4.6238 0.21938,0.8089 0.4363,2.299 0.48205,3.3112 0.0931,2.0604 -0.17181,1.8903 -0.38501,-0.2472 -0.072,-0.722 -0.44204,-2.3783 -0.8223,-3.6807 -0.38025,-1.3024 -0.77499,-2.655 -0.87721,-3.0059 l -0.18584,-0.6378 -0.85705,0.9532 c -1.24686,1.3868 -1.93832,1.6593 -3.8532,1.5184 -1.20751,-0.089 -1.64833,-0.051 -1.93887,0.1679 -0.20682,0.1555 -0.61575,0.2828 -0.90873,0.2828 -0.29298,0 -0.57196,0.065 -0.61995,0.1453 -0.048,0.08 0.17135,1.017 0.48741,2.0825 1.06137,3.5779 3.25343,7.6544 4.95272,9.2104 1.24475,1.1398 2.86461,1.9581 4.1141,2.0781 0.87597,0.084 0.95576,0.054 1.22111,-0.4657 1.13427,-2.2204 1.14966,-8.2617 0.0351,-13.7715 -0.55924,-2.7645 -0.55935,-2.766 -0.2136,-2.766 0.18107,0 0.39373,0.6305 0.66966,1.9856 0.87583,4.301 1.11796,7.5696 0.83786,11.3107 -0.19938,2.663 -0.4497,3.4806 -1.23369,4.0297 -0.52473,0.3676 -2.09955,0.3854 -3.08032,0.035 z m -11.73696,-11.0167 c 0.25532,-0.3463 0.86578,-1.284 1.35656,-2.0838 0.84115,-1.3708 0.88454,-1.5086 0.75637,-2.4029 l -0.13597,-0.9487 -1.07935,1.1659 c -1.22339,1.3215 -1.74469,2.2864 -1.87899,3.4778 -0.16937,1.5028 0.22341,1.8196 0.98138,0.7917 z m 0.41671,-5.1652 c 0.52695,-0.3289 1.15895,-0.598 1.40446,-0.598 0.2455,0 0.44637,-0.1143 0.44637,-0.254 0,-0.1397 0.17435,-0.4412 0.38744,-0.6699 0.36568,-0.3925 0.55938,-1.5072 0.2378,-1.3684 -1.02032,0.4403 -5.58143,3.4356 -6.05787,3.9782 -0.65818,0.7497 -1.4232,2.2595 -1.64871,3.254 -0.11324,0.4993 0.17816,0.2767 2.07031,-1.5814 1.21116,-1.1894 2.63325,-2.4317 3.1602,-2.7605 z m 6.26051,-0.3253 c 0.0524,-0.4653 0.1714,-0.7991 0.26433,-0.7416 0.28758,0.1777 0.18563,0.9235 -0.21636,1.5828 -0.4065,0.6667 -0.32667,0.7434 0.46184,0.4436 0.92626,-0.3521 1.65627,-1.3637 0.98414,-1.3637 -0.16245,0 -0.37823,-0.218 -0.4795,-0.4843 -0.13585,-0.3573 -0.32508,-0.4835 -0.72166,-0.4814 -0.64587,0 -0.89186,0.151 -1.18653,0.7108 -0.27972,0.5314 -0.28414,1.1342 -0.012,1.6426 0.20967,0.3917 0.21208,0.3916 0.51055,-0.034 0.16495,-0.2355 0.3428,-0.8089 0.39526,-1.2743 z m -7.94375,-2.452 c 0.61915,-0.6003 0.72992,-0.6327 2.38229,-0.6973 0.95311,-0.037 1.73294,-0.1353 1.73294,-0.2179 0,-0.083 -0.056,-0.4303 -0.12446,-0.7725 l -0.12445,-0.6223 -1.37687,0.1337 c -1.07977,0.1048 -1.58586,0.2683 -2.34546,0.7577 -0.53273,0.3433 -1.29108,0.8182 -1.68522,1.0553 -0.89088,0.536 -0.80097,0.9929 0.1954,0.9929 0.52345,0 0.85783,-0.1564 1.34583,-0.6296 z m 9.10761,-4.0334 0.6337,-0.4706 -0.28998,-1.6466 c -0.1595,-0.9056 -0.4316,-2.2323 -0.60469,-2.9482 l -0.31469,-1.3016 -0.74776,0.3814 c -0.89763,0.458 -2.25741,0.4957 -2.85209,0.079 -1.50951,-1.0573 -1.13698,-3.6846 0.68499,-4.8312 0.40583,-0.2554 0.57509,-0.4865 0.49663,-0.678 -0.50101,-1.223 -1.24134,-3.436 -1.51647,-4.5331 -0.45009,-1.7946 -0.32555,-4.817 0.26057,-6.3239 0.87292,-2.2441 3.59906,-4.4045 6.23129,-4.9381 l 1.06545,-0.216 0.10876,-2.0194 c 0.12767,-2.3705 0.53203,-3.7201 1.49321,-4.9835 0.80087,-1.0526 0.70214,-0.9693 3.26806,-2.7572 1.08033,-0.7527 2.12641,-1.5485 2.32463,-1.7684 l 0.36037,-0.3999 -0.77487,0.3409 c -0.95582,0.4205 -5.08432,1.7972 -10.46082,3.4884 -6.53901,2.0568 -7.60304,2.5017 -9.35154,3.9109 -0.94532,0.7618 -1.62928,1.935 -1.38588,2.3772 0.088,0.1598 0.33934,1.2059 0.5586,2.3246 0.21926,1.1187 0.91158,3.9518 1.53848,6.2958 0.6269,2.344 1.36261,5.4823 1.6349,6.9739 0.27229,1.4917 1.05757,5.458 1.74505,8.8142 0.68749,3.3562 1.35236,6.7254 1.4775,7.4871 l 0.22751,1.385 1.77769,-1.7862 c 0.97773,-0.9824 2.06286,-1.9979 2.4114,-2.2567 z m -4.41123,1.0881 c 0,-0.2524 1.13725,-0.7765 1.30999,-0.6038 0.16769,0.1677 -0.15769,0.4636 -0.72848,0.6626 -0.45916,0.1601 -0.58151,0.1477 -0.58151,-0.059 z m 2.71595,-7.5659 c 1.00822,-0.5214 1.01096,-0.817 0.0229,-2.4667 -0.49416,-0.8251 -0.99569,-1.5007 -1.11451,-1.5014 -0.84529,0 -1.93782,1.9147 -1.72761,3.0353 0.21302,1.1354 1.56335,1.5822 2.81925,0.9328 z m 0.48346,-3.568 c -0.0752,-0.3425 -0.25432,-0.595 -0.42202,-0.595 -0.16023,0 -0.25947,0.065 -0.22054,0.1453 0.66188,1.3585 0.87489,1.5075 0.64256,0.4497 z m -0.56024,-1.4593 c 0.0597,-0.1558 -0.0677,-1.0493 -0.28324,-1.9856 -0.35768,-1.5538 -0.95575,-5.1271 -1.30628,-7.8046 l -0.13949,-1.0655 -0.28234,0.678 c -0.9265,2.225 -0.53231,6.0973 0.93295,9.1648 0.62107,1.3002 0.87619,1.5398 1.0784,1.0129 z m 2.31437,-11.7067 c 0.90591,-0.4114 2.02034,-1.6595 2.02034,-2.2626 0,-0.2256 -0.16216,-0.5569 -0.36035,-0.7362 -0.39919,-0.3613 -0.72981,-0.2893 -2.35171,0.512 -1.20316,0.5945 -3.06335,2.4412 -2.69431,2.6749 0.48483,0.3069 2.5486,0.1923 3.38603,-0.1881 z m 46.02088,43.8374 c -0.024,-0.3742 -0.1772,-0.4167 -1.9151,-0.5317 -1.0388,-0.069 -3.0656,-0.1265 -4.504,-0.1281 -3.0335,0 -10.39042,-0.6195 -12.78542,-1.0706 -2.48778,-0.4685 -5.10982,-1.1644 -7.26447,-1.9281 -1.06545,-0.3776 -1.71924,-0.6419 -1.45288,-0.5873 0.26636,0.055 1.53038,0.3145 2.80892,0.5775 3.09195,0.6362 7.35502,1.3436 11.69211,1.9402 3.00504,0.4134 4.28564,0.4881 8.36114,0.4881 l 4.8126,0 -0.1975,-0.6296 c -0.4915,-1.5664 -0.3409,-12.145 0.2212,-15.5459 0.1921,-1.1623 1.0325,-4.4141 1.3768,-5.3273 l 0.1826,-0.4843 -0.3422,0.4129 c -0.1882,0.2271 -0.4293,0.5322 -0.5359,0.6781 -0.1543,0.2112 -0.3511,0.1089 -0.9686,-0.5033 l -0.7748,-0.7683 0.7508,0.4372 c 0.413,0.2405 0.7663,0.4119 0.7851,0.3809 0.019,-0.031 0.1827,-0.2937 0.3641,-0.5839 0.3191,-0.5103 0.3156,-0.5368 -0.107,-0.8127 -1.3806,-0.9011 -5.0698,-2.0372 -6.6482,-2.0472 -0.3609,0 -0.9334,0.4921 -1.6096,1.3901 -0.2262,0.3003 -0.1861,0.3106 0.4864,0.1249 0.903,-0.2493 2.5935,-0.073 4.2706,0.4447 1.5117,0.4669 1.5572,0.6361 0.067,0.2496 -1.5549,-0.4033 -3.9818,-0.352 -4.9898,0.1056 -0.4504,0.2044 -0.8593,0.3064 -0.9086,0.2266 -0.049,-0.08 0.2516,-0.6849 0.6687,-1.3446 l 0.7584,-1.1995 -0.5877,0 c -0.3424,0 -0.5377,-0.081 -0.4679,-0.1937 0.066,-0.1065 0.4033,-0.1937 0.7499,-0.1937 0.4739,0 0.7354,-0.1425 1.055,-0.5747 0.2699,-0.3651 0.533,-0.5332 0.7214,-0.4609 0.2659,0.102 0.266,0.1604 0,0.5646 -0.3458,0.5276 -0.2911,0.5757 0.8626,0.7571 1.8577,0.2922 4.2125,0.9499 5.2563,1.468 0.9941,0.4934 1.128,0.5161 1.5024,0.2538 0.2261,-0.1584 0.554,-0.566 0.7286,-0.9058 0.4036,-0.7852 2.1519,-3.1174 3.2659,-4.3564 l 0.8565,-0.9526 -0.4292,-0.3836 c -1.0872,-0.9717 -3.1575,-1.8659 -5.9782,-2.5819 -1.7753,-0.4507 -2.5577,-0.9025 -1.2134,-0.7006 2.342,0.3516 6.2082,1.8298 7.4759,2.8583 l 0.5197,0.4216 1.2238,-1.1088 c 2.8233,-2.5579 8.3297,-6.4321 9.9411,-6.9943 0.5328,-0.1859 1.7243,-0.3795 2.648,-0.4303 3.0144,-0.1657 4.4369,0.5979 6.7299,3.6125 1.2455,1.6374 2.71178,3.8728 3.20298,4.8832 0.3107,0.6392 0.3098,0.6469 -0.028,0.2506 -0.1918,-0.2249 -1.13318,-1.4866 -2.09208,-2.8037 -3.1451,-4.3201 -4.624,-5.412 -7.3201,-5.4045 -2.8642,0.01 -4.4462,0.6786 -8.2742,3.5072 -2.0001,1.4778 -6.3473,5.7761 -7.6954,7.6088 -1.4354,1.9512 -3.3007,5.1137 -3.7316,6.3266 -0.7302,2.0553 -1.3561,4.8834 -1.5754,7.1189 -0.2343,2.3873 -0.1373,12.4291 0.1263,13.0797 0.1313,0.3239 0.3241,0.3427 2.2963,0.224 3.0464,-0.1833 11.1489,-0.9388 18.5222,-1.727 3.4628,-0.3701 7.5163,-0.7239 9.0079,-0.7862 1.49168,-0.062 3.17268,-0.1601 3.73548,-0.2175 l 1.0234,-0.1042 -1.3371,-2.552 c -0.7355,-1.4037 -2.0596,-3.9469 -2.9426,-5.6516 -3.59928,-6.949 -6.31738,-11.805 -8.91828,-15.9334 -0.3605,-0.5723 -0.5126,-0.5498 -0.6564,0.097 -0.3408,1.5337 -5.8026,9.4443 -8.1642,11.8244 -0.8762,0.8832 -1.4484,1.5623 -1.2715,1.5092 1.3118,-0.3937 4.4613,-0.6896 7.0513,-0.6623 l 2.9563,0.031 -2.4215,0.1392 c -1.3318,0.077 -3.8038,0.3293 -5.4932,0.5617 -1.6895,0.2323 -3.1003,0.3938 -3.1352,0.3589 -0.035,-0.035 1.2701,-1.7329 2.9001,-3.7734 1.7925,-2.244 3.5199,-4.6539 4.3714,-6.0987 1.8651,-3.1646 3.0662,-5.004 3.2675,-5.004 0.3776,0 2.1413,2.1519 3.0167,3.6807 0.5186,0.9056 1.1796,2.0389 1.469,2.5183 0.2894,0.4795 1.6823,3.1383 3.0953,5.9084 1.413,2.7702 2.63348,5.1239 2.71208,5.2305 0.079,0.1065 0.7761,1.4141 1.5499,2.9057 0.7738,1.4917 1.604,3.0608 1.8449,3.487 0.6309,1.1156 2.0785,4.3746 1.9848,4.4683 -0.044,0.044 -0.4217,-0.5396 -0.8403,-1.2961 l -0.7612,-1.3754 -3.6806,0.129 c -2.12118,0.074 -5.60948,0.3722 -8.23308,0.7028 -7.9351,1.0002 -20.8094,2.3112 -22.6956,2.3112 -0.075,0 -0.174,0.1961 -0.2202,0.4359 -0.079,0.409 -0.086,0.4108 -0.1103,0.029 z m 36.58648,-0.5587 c 0,-0.1595 1.8045,-1.0174 2.88,-1.3692 0.8725,-0.2854 1.009,-0.3947 0.929,-0.7435 -0.052,-0.2249 -0.1549,-0.7052 -0.2296,-1.0674 l -0.13591,-0.6584 0.65131,0.1195 c 0.3583,0.066 1.3487,0.2501 2.2011,0.4096 1.8526,0.3467 4.1492,0.3836 5.5598,0.089 2.402,-0.5009 4.5506,-2.0223 5.5024,-3.896 0.6457,-1.2713 0.6084,-2.1048 -0.1319,-2.9479 -0.7469,-0.8506 -1.552,-1.0222 -2.9178,-0.6218 -1.3945,0.4087 -1.4149,0.2573 -0.035,-0.2603 1.8346,-0.6882 3.0884,-0.267 3.7661,1.2654 0.2474,0.5591 0.3307,1.0316 0.2448,1.3881 -0.2046,0.8493 -0.9864,2.3024 -1.638,3.0445 l -0.5952,0.678 0.5464,0.1214 c 1.6329,0.3628 3.3346,1.107 4.4577,1.9496 l 0.6178,0.4635 1.2726,-1.8637 1.2726,-1.8638 -0.8734,-0.7688 c -0.9708,-0.8545 -1.1537,-1.5108 -0.4211,-1.5108 0.5971,0 2.7058,-0.6989 3.8053,-1.2611 2.61,-1.3348 4.4386,-4.1728 4.5215,-7.0176 0.061,-2.1051 -1.4473,-4.503 -2.8371,-4.5097 -0.4682,0 -0.5455,-0.048 -0.3242,-0.1908 1.0403,-0.6723 2.5343,0.4295 3.2835,2.4215 0.5714,1.5192 0.4598,3.1293 -0.3636,5.2495 -1.3236,3.4083 -4.0141,5.6956 -6.6995,5.6956 -0.4783,0 -0.8696,0.071 -0.8696,0.1575 0,0.087 0.2604,0.407 0.5787,0.712 0.838,0.8028 0.7178,1.1632 -1.4644,4.3919 l -0.6103,0.9028 -2.9568,-1.4355 c -1.6263,-0.7895 -3.0803,-1.4355 -3.2311,-1.4355 -0.1509,0 -0.5105,0.1697 -0.7992,0.3771 -1.7927,1.2876 -6.5334,1.8751 -10.0496,1.2454 l -0.6136,-0.1098 0.1022,0.762 c 0.1009,0.7523 0.09,0.7679 -0.83931,1.2057 -1.39279,0.6562 -2.37409,0.9752 -2.99979,0.9752 -0.3063,0 -0.5569,-0.042 -0.5569,-0.094 z m -42.21438,-10.4284 c -0.01,-0.087 0.087,-0.3484 0.2136,-0.5811 0.1265,-0.2328 0.2891,-1.6872 0.3614,-3.2321 0.1397,-2.9841 0.3732,-3.8744 1.0164,-3.8744 0.3603,0 0.3772,0.1013 0.2822,1.6951 -0.062,1.0406 -0.2594,2.1064 -0.5111,2.7605 -0.4995,1.2981 -0.4995,1.2946 -0.037,1.5422 0.5224,0.2796 0.9781,0.052 1.3043,-0.6511 l 0.2787,-0.6006 -0.1216,0.5812 c -0.067,0.3196 -0.2639,0.7391 -0.4378,0.9321 -0.3023,0.3354 -0.5122,0.3427 -1.2377,0.043 -0.2502,-0.1033 -0.4136,0.059 -0.7101,0.7045 -0.2118,0.4612 -0.3925,0.7675 -0.4015,0.6806 z m 1.6782,-6.5253 -0.056,-1.0654 -0.3097,0.678 c -0.3539,0.7748 -0.626,3.0736 -0.4256,3.5958 0.2233,0.5817 0.8558,-1.983 0.7913,-3.2084 z m -2.3479,5.7929 c -0.1491,-0.3626 -0.3324,-0.9468 -0.4074,-1.2982 -0.1106,-0.518 -0.1874,-0.5964 -0.4063,-0.4148 -0.4018,0.3335 -0.6694,-0.5389 -0.5507,-1.795 l 0.097,-1.0257 -0.5659,1.1249 c -1.4542,2.8906 -2.6744,2.7027 -2.2016,-0.339 0.2098,-1.349 0.7723,-3.1199 0.9383,-2.9538 0.042,0.042 -0.1047,0.8359 -0.3253,1.765 -0.2207,0.929 -0.3747,2.0524 -0.3423,2.4964 l 0.059,0.8073 0.4533,-0.4818 c 0.6137,-0.6523 1.4187,-2.2908 2.0451,-4.1625 0.2852,-0.8523 0.643,-1.7676 0.7951,-2.034 l 0.2766,-0.4843 0.01,0.5306 c 0,0.2919 -0.1694,0.9893 -0.3849,1.5498 -0.4841,1.259 -0.7744,5.1183 -0.3099,4.1186 0.1485,-0.3196 0.3706,-1.3657 0.4934,-2.3246 0.2674,-2.0864 0.5148,-2.9302 0.903,-3.0791 0.5209,-0.1999 0.549,0.5101 0.087,2.1989 -0.8758,3.2007 -0.8954,3.3865 -0.512,4.8746 0.3774,1.4653 0.2924,1.998 -0.148,0.9267 z m 0.5757,-7.0975 c -0.1032,-0.1031 -0.4475,1.095 -0.6008,2.0901 -0.057,0.3671 0.076,0.067 0.2943,-0.666 0.2183,-0.7335 0.3563,-1.3743 0.3065,-1.4241 z m -21.45847,5.5594 c -0.53057,-0.3096 -1.04947,-1.3096 -1.98616,-3.8277 -1.93024,-5.189 -2.61607,-8.1538 -4.485,-19.3883 -0.0603,-0.3621 -0.18166,-0.5786 -0.27161,-0.4843 -0.0895,0.094 -0.0694,0.9115 0.0446,1.8171 0.16732,1.329 0.14937,1.9896 -0.0931,3.4241 -0.66364,3.927 -2.72209,6.1278 -6.24416,6.6762 -1.65149,0.2571 -2.68826,0.1029 -4.12023,-0.6126 -1.76993,-0.8845 -2.07954,-1.3287 -2.46951,-3.543 -0.18411,-1.0455 -0.29355,-1.9422 -0.24316,-1.9925 0.25225,-0.2523 0.76086,1.3935 0.67261,2.1765 -0.0883,0.7834 -0.0423,0.891 0.64884,1.5154 1.68554,1.5228 3.16076,2.1474 4.60302,1.9491 l 0.92569,-0.1274 -0.46425,-0.938 c -0.61491,-1.2425 -0.73171,-2.2726 -0.42277,-3.7285 0.32484,-1.5306 0.34684,-2.9703 0.05,-3.2675 -0.30663,-0.307 -1.12075,0.029 -2.72472,1.1261 -1.3528,0.9249 -1.40258,0.9444 -1.40258,0.5484 0,-0.3751 1.04031,-1.1486 2.33563,-1.7367 l 1.05445,-0.4787 -0.69567,-0.011 c -1.08064,-0.017 -2.2978,0.4332 -3.54983,1.3138 -0.6303,0.4433 -1.21872,0.806 -1.30761,0.806 -0.36155,0 -0.12707,-0.5592 0.37112,-0.8851 0.70909,-0.4638 2.56678,-2.227 2.56678,-2.4362 0,-0.091 0.16832,-0.334 0.37406,-0.5397 0.20573,-0.2057 0.646,-1.223 0.9784,-2.2607 0.76399,-2.385 0.8513,-4.7461 0.22766,-6.1559 -0.37917,-0.8572 -0.29711,-1.3533 0.13726,-0.8299 0.55514,0.6689 0.80097,1.7361 0.80097,3.477 0,1.9526 -0.30238,3.2799 -1.11085,4.8765 -0.31366,0.6193 -0.40921,0.9864 -0.26897,1.0331 0.36154,0.1205 0.24445,0.3967 -0.19616,0.4626 -0.22752,0.034 -0.55366,0.2737 -0.72476,0.5326 -0.30511,0.4616 -0.30181,0.4679 0.17151,0.3247 0.26544,-0.08 0.90304,-0.1949 1.41688,-0.2546 0.75904,-0.088 1.03862,-0.031 1.49061,0.3029 0.71913,0.5316 2.10509,0.8992 2.7656,0.7334 0.82298,-0.2065 0.86064,-0.8817 0.16404,-2.941 -1.1721,-3.4648 -0.61392,-5.8252 1.09456,-4.6285 0.89035,0.6236 1.77849,2.9951 1.78188,4.758 0.003,1.314 -0.27107,1.6257 -1.28272,1.4615 l -0.70038,-0.1136 0.10708,0.6598 c 0.17524,1.0799 2.10848,4.7714 2.3196,4.4293 0.23626,-0.3829 0.52711,-2.5714 0.52711,-3.9663 0,-2.7791 -0.99119,-6.1181 -2.63805,-8.8866 -0.7837,-1.3175 -1.00023,-1.5513 -1.43667,-1.5513 -0.61064,0 -2.30363,-0.562 -3.4412,-1.1424 -0.62735,-0.32 -0.81399,-0.5259 -0.81399,-0.898 l 0,-0.4828 0.81346,0.5135 c 1.0286,0.6493 2.68443,1.4242 3.04873,1.4266 0.51353,0 -0.80911,-1.1533 -1.99768,-1.7473 -0.63334,-0.3165 -1.26835,-0.5754 -1.41115,-0.5754 -0.14281,0 -0.25964,-0.1422 -0.25964,-0.3159 0,-0.252 0.13524,-0.294 0.66812,-0.2075 2.23837,0.3632 4.72893,2.9189 6.12996,6.2901 0.41869,1.0075 0.61698,1.1576 1.11328,0.8431 0.21076,-0.1336 0.22122,-0.5057 0.0557,-1.9827 -0.37107,-3.3114 -0.42073,-4.1632 -0.22348,-3.8333 0.19322,0.3231 2.48733,1.4379 2.64162,1.2836 0.0487,-0.049 -0.0867,-0.7322 -0.30101,-1.5189 -0.30094,-1.1048 -2.52918,-13.2719 -2.52918,-13.8103 0,-0.063 0.0772,-0.1148 0.17164,-0.1148 0.16975,0 0.4757,1.5209 1.48085,7.3613 0.28422,1.6515 0.71873,3.8744 0.96558,4.9399 0.24685,1.0654 0.50666,2.2205 0.57737,2.5667 0.0896,0.4388 0.23785,0.6296 0.48917,0.6296 0.48762,0 0.5414,-0.1231 0.77274,-1.7693 0.11029,-0.7849 0.24581,-1.5726 0.30116,-1.7504 0.089,-0.2858 0.021,-0.2989 -0.58531,-0.1128 -0.37726,0.1158 -0.74603,0.1504 -0.81949,0.077 -0.0735,-0.073 0.0538,-0.5192 0.28273,-0.9905 0.40192,-0.8272 0.40374,-0.8608 0.0525,-0.9723 -0.47905,-0.152 -1.36433,-0.8542 -1.36433,-1.0821 0,-0.099 0.34157,-0.1797 0.75903,-0.1797 1.316,0 1.4584,-0.1406 0.89314,-0.8817 -0.67537,-0.8854 -0.65836,-1.3408 0.0429,-1.1476 0.67995,0.1872 2.30343,0.2263 2.4703,0.06 0.27373,-0.2738 -1.61297,-2.6715 -3.66763,-4.661 -0.63189,-0.6119 -1.0881,-1.1733 -1.0138,-1.2476 0.0743,-0.074 -0.13454,-0.2485 -0.46409,-0.387 -0.40312,-0.1695 -0.5785,-0.3639 -0.53595,-0.5941 0.17582,-0.9513 7.22942,-3.5423 12.8352,-4.7147 3.56103,-0.7448 8.19813,-1.3655 9.86541,-1.3205 l 0.80257,0.022 -0.96855,0.1725 c -7.95615,1.4168 -12.43415,2.2741 -13.65719,2.6148 -3.14703,0.8765 -9.3687,3.5358 -8.32022,3.5563 0.16514,0 0.38307,-0.077 0.48429,-0.1772 0.20847,-0.2073 4.23386,-1.7872 5.41444,-2.1251 2.05867,-0.5893 7.35787,-1.4032 9.83387,-1.5105 2.24593,-0.097 2.84857,-0.06 3.82282,0.2347 0.63612,0.1926 1.30344,0.5124 1.48295,0.7108 0.31783,0.3512 0.30394,0.3518 -0.5296,0.024 -0.70144,-0.2761 -1.46807,-0.3354 -4.24607,-0.3283 -3.05706,0.01 -3.67552,0.069 -6.29587,0.6272 -2.89718,0.6167 -8.62049,2.3197 -8.62049,2.565 0,0.071 0.44426,0.1882 0.98723,0.2602 1.73428,0.2301 6.03933,1.4072 7.39041,2.0208 1.49913,0.6807 2.97857,1.9783 4.00893,3.516 1.2658,1.8892 1.38388,2.2416 2.33688,6.9739 0.33258,1.6515 0.73981,3.5257 0.90497,4.165 0.16515,0.6393 0.63491,3.0365 1.0439,5.3272 0.79726,4.4654 1.45512,7.9638 1.63017,8.669 0.10123,0.4078 0.2108,0.4359 1.70268,0.437 1.80885,10e-4 5.17665,0.4618 5.79425,0.7923 0.3579,0.1916 0.3942,0.1755 0.2795,-0.1234 -0.2218,-0.5781 -1.0343,-3.5955 -1.3456,-4.9973 -0.1618,-0.7285 -0.3366,-1.367 -0.3884,-1.4189 -0.052,-0.052 -1.0395,-0.1967 -2.1947,-0.322 l -2.10031,-0.2277 2.08251,-0.055 c 1.3766,-0.036 2.0824,-0.1286 2.0824,-0.2722 0,-0.333 -1.5369,-8.118 -1.7329,-8.7776 -0.095,-0.3197 -0.2748,-1.235 -0.3996,-2.0341 -0.1673,-1.0712 -2.65545,-10.9924 -3.18216,-12.6887 -0.0331,-0.1066 -0.96481,-0.4553 -2.07043,-0.7749 -1.9642,-0.5677 -2.1078,-0.5809 -6.27204,-0.5775 -2.34401,0 -5.08997,0.076 -6.10215,0.1643 -1.48308,0.1296 -1.91101,0.1071 -2.20441,-0.1161 -0.32386,-0.2463 -0.035,-0.302 2.61521,-0.5045 1.6386,-0.1253 4.11253,-0.2256 5.49763,-0.2229 4.6371,0.01 9.00793,0.9408 9.00793,1.9206 0,0.181 0.25803,1.0924 0.57341,2.0254 0.31538,0.933 0.97361,3.2665 1.46271,5.1855 0.8582,3.3667 1.1285,4.6268 2.1132,9.8506 0.251,1.3319 0.9408,4.5573 1.5328,7.1676 1.2126,5.3473 1.5594,7.1583 1.401,7.3167 -0.06,0.06 -1.3075,-0.1255 -2.7727,-0.4119 -1.4651,-0.2864 -3.26156,-0.5187 -3.99214,-0.5164 -1.16624,0 -1.31301,0.044 -1.20278,0.3315 0.30083,0.784 1.46627,5.1076 1.67632,6.219 0.36218,1.9162 0.13972,4.2795 -0.52864,5.6162 -0.6111,1.2221 -1.53783,1.9791 -2.42274,1.9791 -0.5151,0 -0.5525,-0.052 -0.5525,-0.7719 0,-1.26 -0.86087,-3.8573 -2.19828,-6.6323 -1.04919,-2.177 -1.42109,-2.7523 -2.27626,-3.5212 -1.00445,-0.9031 -2.06861,-1.5804 -2.22975,-1.4193 -0.045,0.045 0.14473,1.1193 0.42165,2.3873 0.43949,2.0125 0.49237,2.6257 0.41601,4.8239 -0.0585,1.6839 -0.19572,2.8157 -0.41416,3.4159 -0.42804,1.1761 -1.54063,2.456 -2.52262,2.902 -0.84729,0.3849 -2.32912,0.4703 -2.85311,0.1646 z m 2.74193,-0.766 c 1.40572,-0.7172 2.17651,-2.1787 2.54479,-4.8253 0.23199,-1.6672 0.0259,-3.6491 -0.70692,-6.7996 -0.26025,-1.1188 -0.65413,-3.0802 -0.87532,-4.3587 -0.6032,-3.4867 -0.6543,-3.6296 -1.45095,-4.0587 -1.12766,-0.6072 -2.82761,-2.589 -3.61973,-4.2197 -0.73883,-1.5211 -2.13442,-5.9208 -1.96501,-6.1949 0.19508,-0.3157 0.84624,-0.1531 0.84624,0.2113 0,0.2001 0.1393,0.6972 0.30956,1.1047 0.18289,0.4377 0.26685,1.004 0.20519,1.384 -0.0667,0.4109 -0.0331,0.5991 0.093,0.5211 0.11491,-0.071 0.18345,-0.862 0.16405,-1.8931 -0.0408,-2.1671 -0.0348,-2.2277 0.18698,-1.8771 0.0979,0.1548 0.23995,1.155 0.31566,2.2229 0.10912,1.5391 0.17613,1.8421 0.32334,1.4621 0.17682,-0.4565 0.19323,-0.4609 0.34322,-0.092 0.0866,0.2131 0.20777,0.5455 0.26918,0.7387 0.15147,0.4765 0.50185,0.2232 0.50185,-0.3627 0,-0.599 0.13796,-0.596 0.61722,0.013 0.21032,0.2673 0.46874,0.4327 0.57427,0.3675 0.23221,-0.1435 0.12464,-0.84 -0.69426,-4.495 -0.54314,-2.4241 -0.64719,-2.7109 -0.83444,-2.3 -0.66073,1.4502 -2.53491,2.646 -4.19929,2.6794 -0.83788,0.017 -1.43835,-0.1984 -2.49692,-0.8949 l -0.54383,-0.3578 0.10648,0.4654 c 0.13537,0.5917 0.31947,1.8042 1.3619,8.9698 0.46654,3.2069 1.20403,7.4799 1.63886,9.4954 0.73181,3.3922 2.67751,9.9252 3.52974,11.8518 0.68694,1.553 1.95335,2.0082 3.45511,1.2421 z m -8.52013,-23.3496 c 0,-0.089 0.10432,-0.45 0.23182,-0.8026 0.20515,-0.5674 0.18287,-0.7073 -0.19372,-1.2167 -0.52808,-0.7143 -0.59958,-1.3642 -0.10495,-0.954 0.4013,0.3328 0.84173,1.3653 0.84173,1.9731 0,0.2533 -0.17435,0.6183 -0.38744,0.8111 -0.21309,0.1929 -0.38744,0.278 -0.38744,0.1891 z m 19.87602,20.7911 c 0.39098,-0.7561 0.71233,-3.3571 0.5693,-4.608 -0.0672,-0.5876 -0.50969,-2.4686 -0.98332,-4.18 -0.47364,-1.7114 -0.99242,-3.8907 -1.15287,-4.8429 -0.16045,-0.9523 -0.42647,-2.3416 -0.59115,-3.0874 -0.1647,-0.7459 -0.40477,-1.9559 -0.53351,-2.6891 l -0.23406,-1.333 -0.63924,0.9876 c -0.70332,1.0865 -1.52905,1.8349 -1.82359,1.6529 -0.10424,-0.064 0.20705,-0.5209 0.69176,-1.0144 0.48471,-0.4935 1.05211,-1.2895 1.26091,-1.769 0.42554,-0.9772 0.41843,-1.0431 -0.68176,-6.3226 l -0.53036,-2.545 -0.52269,0.8242 c -0.33854,0.5338 -0.80697,0.9527 -1.32967,1.189 -0.80483,0.3639 -0.8067,0.3672 -0.6976,1.2366 0.17456,1.391 2.00919,11.2327 2.72644,14.6257 0.85839,4.0607 1.11922,5.3715 1.83101,9.2017 0.3267,1.758 0.63859,3.3965 0.69308,3.6413 l 0.0991,0.4449 0.78792,-0.4429 c 0.43334,-0.2435 0.91049,-0.6799 1.06032,-0.9696 z m -4.57859,-8.6976 c -0.47677,-2.8732 -1.55682,-8.5764 -1.64078,-8.6642 -0.0328,-0.034 -0.46318,0.075 -0.95645,0.2421 -0.99556,0.338 -3.20797,0.4144 -3.20797,0.1108 0,-0.1066 0.4337,-0.1937 0.96381,-0.1937 0.95453,0 0.96198,-0.01 0.77488,-0.4969 -0.10391,-0.2733 -0.19027,-1.1669 -0.1919,-1.9857 -0.004,-1.9657 -0.12508,-2.1373 -1.06092,-1.5022 -0.40351,0.2738 -0.85225,0.4978 -0.9972,0.4978 -0.33067,0 -0.35185,-0.5796 -0.0214,-0.5854 0.13318,0 0.46007,-0.1809 0.72644,-0.3967 0.46683,-0.3782 0.47093,-0.4008 0.11351,-0.6253 -0.75156,-0.4721 -1.44278,-1.2147 -1.56919,-1.6858 l -0.12994,-0.4843 0.31307,0.4267 c 0.17219,0.2347 0.84355,0.7988 1.49192,1.2536 0.64837,0.4548 1.25645,1.031 1.35131,1.2805 0.0948,0.2495 0.22881,1.3136 0.29769,2.3647 l 0.12524,1.9112 0.89196,-0.3341 c 1.07365,-0.4021 1.05955,-0.1317 0.24109,-4.6222 -0.33457,-1.8356 -0.60776,-3.8406 -0.60708,-4.4556 10e-4,-1.0375 0.0428,-1.1417 0.57888,-1.4467 0.31771,-0.1808 0.8402,-0.7427 1.16109,-1.2487 0.50954,-0.8034 0.58343,-1.0966 0.58343,-2.3145 0,-1.5465 -0.54239,-3.6059 -1.15473,-4.3844 -0.55988,-0.7118 -2.1754,-1.3308 -3.79208,-1.4531 l -1.40597,-0.1063 -0.95819,0.8963 c -0.52701,0.4929 -0.9986,0.8558 -1.04798,0.8064 -0.30967,-0.3096 0.15702,3.9322 0.71363,6.4864 0.3599,1.6514 1.00981,5.0234 1.44427,7.4933 0.43445,2.4699 0.91087,4.9107 1.05871,5.4241 0.14785,0.5134 0.42066,1.8215 0.60626,2.9069 l 0.33746,1.9735 0.92598,0.6 c 1.04335,0.6761 3.00498,2.7381 3.79951,3.994 0.29,0.4584 0.55272,0.808 0.58382,0.7769 0.0311,-0.031 -0.12288,-1.1378 -0.34219,-2.4594 z m -6.75959,-15.8179 c -0.43511,-0.3545 -0.96337,-2.1423 -0.9759,-3.3029 -0.0156,-1.4494 1.23972,-2.6162 2.32924,-2.1649 0.82533,0.3418 1.22948,1.5605 1.10313,3.3263 -0.0901,1.2594 -0.15893,1.448 -0.70715,1.9378 -0.70148,0.6268 -1.16383,0.6806 -1.74932,0.2037 z m 1.45811,-0.3904 c 1.07227,-0.716 0.77078,-4.6429 -0.37285,-4.8564 -0.45469,-0.085 -1.08115,0.4764 -1.41678,1.2693 -0.3544,0.8373 -0.33317,1.0233 0.11678,1.0233 0.7864,0 1.10559,1.6361 0.37212,1.9074 -0.38411,0.1421 -0.38927,0.1718 -0.083,0.4781 0.33865,0.3386 1.01339,0.4256 1.38375,0.1783 z m -1.31678,-1.6683 c -0.084,-0.5886 -0.4304,-0.5084 -0.47798,0.1106 -0.0301,0.3916 0.032,0.4943 0.24827,0.4112 0.16071,-0.062 0.2624,-0.2927 0.22971,-0.5218 z m -13.56434,17.0136 c 0.90247,-0.3764 1.90122,-1.3224 2.38306,-2.2572 l 0.36972,-0.7172 -0.48356,-0.5218 c -0.26595,-0.287 -0.48355,-0.6052 -0.48355,-0.7072 0,-0.1021 -0.31479,0.091 -0.69954,0.4287 -1.21126,1.0635 -2.24318,1.2469 -3.32012,0.5903 l -0.62959,-0.3838 0,0.8816 c 0,0.9409 0.16057,1.3587 0.9059,2.3575 0.52521,0.7037 0.90604,0.7678 1.95768,0.3291 z m 0.16491,-3.696 c 0.73425,-0.3485 1.38971,-1.2174 0.72313,-0.9587 -0.66601,0.2585 -2.45864,0.5327 -2.91383,0.4457 -0.60934,-0.1165 -0.56689,-0.012 0.17924,0.4435 0.76577,0.4669 1.14627,0.48 2.01146,0.07 z m 0.27178,-1.3563 c 0.43437,-0.1738 0.75081,-0.4135 0.70319,-0.5327 -0.79242,-1.9837 -0.70624,-1.8749 -1.21869,-1.5391 -0.34108,0.2235 -0.72854,0.2791 -1.39458,0.2002 l -0.92226,-0.1092 -0.0454,1.1484 -0.0453,1.1484 1.06664,0 c 0.58665,0 1.42204,-0.1422 1.8564,-0.316 z m 12.86936,-3.9942 c -0.0765,-0.5594 -0.21329,-1.2132 -0.30396,-1.4529 -0.19931,-0.527 -0.94932,-0.6025 -0.94932,-0.096 0,0.9202 0.75993,2.5655 1.18496,2.5655 0.13875,0 0.16138,-0.3367 0.0683,-1.017 z m -11.31038,-0.5631 c 0.46583,-0.8704 -0.29673,-3.9177 -1.18053,-4.7175 -0.19445,-0.176 -0.55688,-0.2911 -0.80539,-0.2559 -0.56816,0.081 -0.68957,0.942 -0.35026,2.4854 0.52102,2.37 1.71742,3.6441 2.33618,2.488 z m -1.63765,-1.1804 c -0.22535,-0.8409 -0.15434,-1.0094 0.26534,-0.6296 0.44355,0.4015 0.518,1.0655 0.11945,1.0655 -0.14739,0 -0.32054,-0.1961 -0.38479,-0.4359 z m 11.22823,0.4065 c -0.0712,-0.4451 -0.3868,-1.1302 -0.70686,-1.5343 -0.31804,-0.4016 -0.75324,-1.1257 -0.96712,-1.6092 -0.43402,-0.9812 -0.70163,-1.2301 -1.00091,-0.9308 -0.14002,0.14 0.0518,0.6661 0.62607,1.7169 0.90533,1.6567 1.88837,3.1617 2.06511,3.1617 0.0618,0 0.0545,-0.3619 -0.0163,-0.8043 z m -7.54575,-1.2782 c -0.0528,-0.1865 -0.15396,-0.7967 -0.22495,-1.356 -0.11354,-0.8949 -0.18258,-1.0171 -0.57485,-1.0171 l -0.44581,0 0.3679,1.1821 c 0.20235,0.6501 0.41629,1.2604 0.47542,1.356 0.1919,0.3105 0.50095,0.1837 0.40229,-0.165 z m 8.78715,-0.016 c 0,-0.089 -0.0992,-0.6554 -0.22046,-1.2592 -0.16182,-0.8057 -0.30611,-1.0977 -0.54241,-1.0977 -0.17708,0 -0.432,-0.109 -0.56649,-0.2422 -0.19585,-0.1939 -0.2826,-0.1747 -0.4358,0.097 -0.10521,0.1865 -0.31771,0.339 -0.47224,0.339 -0.33743,0 -0.34488,0.16 -0.0319,0.6862 0.68509,1.1518 1.19735,1.6384 1.7246,1.6384 0.2996,0 0.54473,-0.073 0.54473,-0.1614 z m -3.78338,-8.5712 c 1.03172,-0.951 1.5052,-2.0781 1.42245,-3.3861 l -0.0605,-0.9573 -0.36644,1.0527 -0.36643,1.0527 -0.36001,-0.4446 c -0.19801,-0.2445 -0.36002,-0.6267 -0.36002,-0.8493 0,-1.1136 -0.97597,1.5518 -1.24564,3.4019 -0.17334,1.1891 0.15313,1.2209 1.33665,0.13 z m 0.17203,-4.634 c 0.0684,0 0.12441,0.3103 0.12441,0.6895 0,0.9211 0.24004,0.7213 0.67666,-0.5632 0.27546,-0.8104 0.31593,-1.2074 0.17382,-1.7052 -0.18431,-0.6457 -0.19205,-0.6493 -1.58358,-0.7457 -0.76909,-0.053 -1.39823,-0.066 -1.39808,-0.028 1.2e-4,0.038 0.22668,0.338 0.50341,0.6668 0.47511,0.5646 0.48384,0.6121 0.15669,0.8513 -0.19054,0.1393 -0.64215,0.2533 -1.00358,0.2533 -0.44124,0 -0.62961,0.08 -0.57336,0.2422 0.0498,0.1438 0.33168,0.2174 0.69416,0.1813 0.71081,-0.071 0.7621,0.1347 0.30604,1.2262 l -0.30436,0.7284 1.05168,-0.8984 c 0.57843,-0.4942 1.10767,-0.8985 1.17609,-0.8985 z m 2.07676,-2.1592 c 0.19942,-0.3726 0.18,-0.4047 -0.18689,-0.3088 -0.22891,0.06 -0.40943,0.015 -0.40943,-0.1008 0,-0.1143 -0.0401,-0.1677 -0.0892,-0.1187 -0.13947,0.1395 0.11507,0.944 0.29868,0.944 0.0904,0 0.26444,-0.1871 0.38682,-0.4157 z m 6.36063,-0.7784 c -0.13312,-0.2489 -0.72861,-0.9632 -1.3233,-1.5873 -1.65328,-1.7353 -3.75717,-2.6922 -7.95828,-3.6197 -1.43836,-0.3176 -2.77904,-0.6294 -2.97928,-0.6929 -0.20025,-0.064 0.33293,0.4986 1.18483,1.2493 1.67086,1.4723 2.40253,2.323 3.23527,3.7614 0.58028,1.0024 0.47369,0.9799 2.37528,0.5002 1.27647,-0.322 3.28803,-0.1218 4.51382,0.4491 0.58601,0.273 1.09431,0.4729 1.12958,0.4443 0.0353,-0.029 -0.0448,-0.2556 -0.17792,-0.5044 z m -29.7041,39.9619 c -0.17061,-0.2761 0.0746,-1.5737 0.29733,-1.5737 0.0947,0 0.17082,0.2833 0.16919,0.6295 -0.003,0.7344 -0.2668,1.2673 -0.46652,0.9442 z m 101.88123,-0.043 c -0.9588,-0.088 -3.4433,-0.3339 -5.5209,-0.5456 -2.0776,-0.2118 -4.366,-0.4398 -5.0852,-0.5067 -1.83951,-0.1712 -1.68081,-0.5263 0.1938,-0.4334 1.6552,0.082 6.1285,0.618 7.7972,0.9342 1.6701,0.3165 4.4104,0.4229 6.0537,0.235 0.8257,-0.094 1.5013,-0.1469 1.5013,-0.1167 0,0.03 -0.2572,0.188 -0.5716,0.3505 -0.6181,0.3197 -1.5943,0.3381 -4.3683,0.083 z m -54.66168,-1.5556 c 0.035,-1.7719 0.1456,-2.019 1.9166,-4.2813 0.2277,-0.2908 0.4745,-0.901 0.5486,-1.356 l 0.1346,-0.8273 0.024,0.8361 c 0.027,0.9349 -0.1429,1.3337 -1.0472,2.4572 -0.9525,1.1832 -1.2844,1.9756 -1.4544,3.473 l -0.1555,1.3699 0.033,-1.6716 z m 25.5555,0.076 c 0.5061,-0.04 1.3342,-0.04 1.8404,0 0.506,0.04 0.092,0.072 -0.9202,0.072 -1.0122,0 -1.4263,-0.033 -0.9202,-0.072 z m -28.3314,-12.5369 c 0,-0.3259 1.5702,-1.4622 2.0205,-1.4622 0.1673,0 0.3041,-0.07 0.3041,-0.1548 0,-0.085 0.2896,-0.2595 0.6434,-0.3875 0.9687,-0.3503 1.1067,-0.2714 0.2284,0.1305 -0.4262,0.1951 -1.2703,0.7598 -1.8757,1.2549 -1.2011,0.9823 -1.3207,1.0384 -1.3207,0.6191 z m 1.5789,-2.7698 c -0.1082,-0.5061 -0.3064,-1.5171 -0.4404,-2.2467 -0.2677,-1.4567 -0.5072,-1.6761 -1.8291,-1.6761 -0.4759,0 -0.6654,-0.087 -0.6654,-0.3046 0,-0.2551 0.1684,-0.2834 1.0391,-0.1746 l 1.0391,0.1298 -0.176,-1.1329 c -0.3964,-2.5511 -2.352,-9.9815 -5.2768,-20.05 -0.701,-2.4135 -1.27434,-4.5056 -1.27394,-4.6492 0.001,-0.3815 0.65684,0.7603 1.01834,1.7729 1.0248,2.8712 2.3447,7.5725 4.0195,14.317 1.8753,7.5522 2.2902,9.4488 2.822,12.9005 0.3225,2.093 0.3197,2.034 0.098,2.034 -0.098,0 -0.2662,-0.4141 -0.3744,-0.9201 z m 2.6466,0.4004 c 0.1399,-0.056 0.3069,-0.049 0.3713,0.015 0.064,0.064 -0.05,0.1101 -0.2542,0.1017 -0.2257,-0.01 -0.2716,-0.055 -0.1171,-0.117 z m -0.9126,-3.3179 c -0.113,-0.2111 -0.5274,-0.46 -0.9209,-0.553 -0.3936,-0.093 -0.7486,-0.2684 -0.789,-0.3895 -0.052,-0.1565 0.1308,-0.1743 0.6315,-0.061 0.6621,0.1493 0.6985,0.133 0.5979,-0.2674 -0.059,-0.2346 -0.2799,-1.295 -0.4912,-2.3565 -0.8586,-4.3123 -1.7965,-8.141 -5.8259,-23.783 -1.1897,-4.6181 -1.4617,-6.4774 -0.7219,-4.9336 0.3529,0.7364 1.875,6.4188 3.2575,12.1608 1.861,7.7292 3.0847,13.0359 3.4619,15.0132 0.2236,1.172 0.5847,2.8578 0.8023,3.7462 0.3929,1.6035 0.3921,2.1608 0,1.4241 z m -13.46183,-6.4779 c -0.0546,-0.4528 -0.19311,-1.8545 -0.30775,-3.1148 -0.23955,-2.6333 -0.79533,-5.214 -1.37582,-6.3885 -0.22079,-0.4467 -0.48245,-1.0302 -0.58145,-1.2965 -0.17478,-0.4702 -0.17089,-0.4731 0.1335,-0.097 0.59655,0.7372 1.61806,3.105 1.92219,4.4555 0.29753,1.3212 0.64079,7.2645 0.41956,7.2645 -0.061,0 -0.15561,-0.3705 -0.21023,-0.8233 z m -24.89761,-0.2421 c -0.39732,-0.9453 -0.16643,-2.4095 0.46567,-2.9532 0.74662,-0.6422 1.91002,-0.5585 2.00409,0.1442 0.0524,0.3915 0.0171,0.4379 -0.18404,0.2422 -0.13687,-0.1332 -0.48988,-0.2422 -0.78446,-0.2422 -0.68949,0 -0.93333,0.4601 -1.11485,2.1035 -0.139,1.2584 -0.14748,1.2739 -0.38641,0.7055 z m -15.28523,-20.0083 c -0.40614,-0.2827 3.71399,-0.6185 10.04865,-0.819 10.76531,-0.3406 12.79308,-0.1489 5.12316,0.4843 -4.50584,0.372 -14.79232,0.5989 -15.17181,0.3347 z"
       id="path11550-9"
       inkscape:connector-curvature="0" />
  </g>
</svg>
